<svg xmlns="http://www.w3.org/2000/svg" width="24" height="24" viewBox="0 0 24 24">
  <defs>
    <rect id="rect-1" width="24" height="24" x="0" y="0"/>
  </defs>
  <g>
    <ellipse cx="11.864" cy="11.862" fill="rgb(253,206,46)" rx="11.862" ry="11.862"/>
    <g transform="translate(2.27089655 6.72)">
      <path fill="rgb(16,16,17)" fill-rule="evenodd" d="M4.40753214 8.67051476c-.08179862-.18004966-.00222455-.39235531.1778251-.47420028.18000331-.08179862.39235531-.00222455.47420028.1778251 1.78117076 3.91864056 7.3265611 3.84861352 9.06736551.00055614.08147421-.18018869.29368718-.26013351.47387587-.17861296.18018869.0814742.26017986.29364083.17870565.47387586-1.98703448 4.39205297-8.33256827 4.48687448-10.37197241.00055614z"/>
      <path fill="rgb(16,16,17)" fill-rule="evenodd" d="M17.14832772.02817766H2.03833821c-1.11589076 0-2.0205418.90460468-2.0205418 2.02054179h.00088056C.037632 4.25528938 1.8314549 6.03840662 4.04256662 6.03840662c1.62693517 0 3.02701241-.96601159 3.66124138-2.35515145l.00101959.00037076c.03906869-.09547034.12503834-.27227586.21045186-.57462952.04013462-.12638234.44338096-1.2417633.44138814-1.23624827.09157738-.25438676.33284855-.42396248.60317793-.42396248h1.2669749c.27032937 0 .51169324.16957572.60317792.42396248l.41427642 1.1509738c.20725407.6526742.16461683.4667851.23756358.65995034l.0010196-.00037076c.6342753 1.3891862 2.0343062 2.35515145 3.66124137 2.35515145 2.21106538 0 4.00493462-1.78311725 4.02388966-3.98968718h.00088055c0-1.1159371-.9046047-2.02058813-2.0205418-2.02058813z"/>
    </g>
  </g>
</svg>
