<svg xmlns="http://www.w3.org/2000/svg" width="24" height="24" viewBox="0 0 24 24">
  <defs>
    <rect id="rect-1" width="24" height="24" x="0" y="0"/>
  </defs>
  <path fill="rgb(253,206,46)" fill-rule="evenodd" d="M11.99800205 4.9845581l.11459542-.11449813c2.49342346-2.49341202 6.53138637-2.49341202 9.02480411-.00000668 2.4882927 2.48823452 2.48752403 6.51363182.001297 9.01362229l-7.90128994 7.89659023c-.683424.683424-1.79138851.683424-2.4748087.00000381l-7.89540958-7.89530945C.37760204 11.39533615.37760204 7.35890484 2.86719704 4.8693099c2.48959398-2.48958206 6.52601623-2.48958206 9.01559066-.00001955l.11521435.11526776zm7.72474194 7.48664857c1.65259933-1.66175175 1.70640373-4.30209923.16038704-6.01844597l-.159935-.16848374c-1.71237564-1.712368-4.4840126-1.712368-6.19561195-.00077677l-1.52778626 1.53113509-1.5312004-1.53110838c-1.7085457-1.70853806-4.4786439-1.70853806-6.18718816-.00000191-1.70854663 1.70854664-1.70854663 4.47865534-.00000476 6.187222l7.7185974 7.71881104 7.72274209-7.71835136z"/>
</svg>
