<svg xmlns="http://www.w3.org/2000/svg" width="24" height="24" viewBox="0 0 24 24">
  <defs>
    <rect id="rect-1" width="24" height="24" x="0" y="0"/>
  </defs>
  <g transform="translate(0 1)">
    <rect width="6.767" height="11.6" x=".483" y="10.18" fill="rgb(1,119,253)" rx="0" ry="0"/>
    <path fill="rgb(1,119,253)" fill-rule="evenodd" d="M.48334843 22.26352692H7.25c.26693583 0 .48334837-.21636773.48334837-.48330307V10.18022346c0-.2669363-.21641254-.48334884-.48334837-.48334884H.48334843C.2164125 9.69687462 0 9.91328716 0 10.18022346v11.60000039c0 .26693534.2164125.48330307.48334843.48330307zm6.2833032-.96665192H.96665156V10.66352654h5.80000007V21.296875z"/>
    <path fill="rgb(236,239,241)" fill-rule="evenodd" d="M7.25 19.846875c.84235938.61652187 1.85622656.9544625 2.9.96665156h8.94165156c.93212344.0032625 1.69042813-.74974062 1.69369063-1.68190937.00163125-.46866719-.19167188-.91694375-.53369063-1.23743907.92301563-.0997328 1.59046875-.92886093 1.49073594-1.85187656-.04331875-.400925-.22932656-.77289531-.52403906-1.04812344.92315156-.0986453 1.59155625-.92700312 1.49286562-1.85015468-.06058281-.56676875-.40423281-1.06425469-.91286562-1.32149375.90706562-.563325 1.18569218-1.75531563.62236718-2.66238125-.35176093-.56640625-.97059375-.91159688-1.63736718-.91331875h-6.76669688c.53101719-1.39557969.85663282-2.86085.96665156-4.35 0-1.8125-1.57084843-3.38334844-2.41665156-3.38334844-.5216375.0076125-1.02814062.17644687-1.45.48334844v3.38334843l-2.9 6.28334844L7.25 11.146875v8.7z"/>
    <path fill="rgb(1,119,253)" fill-rule="evenodd" d="M10.14999962 21.29687459h8.94165182c1.2001915-.001585 2.17287064-.97385597 2.17486381-2.17404747.0010872-.33553886-.07671356-.6666832-.22715187-.96665192.73111725-.36730384 1.19294167-1.11518669 1.19384766-1.9333477.0010891-.33553982-.07671356-.66668415-.22714996-.96665287.20503807-.10272312.3924961-.23743725.55521393-.39906692.84693527-.8412714.85155677-2.20984555.01028442-3.05678082.40559387-.44193268.62993622-1.0203476.6283493-1.62014866 0-1.3346796-1.08197212-2.41665172-2.41665077-2.41665172H14.6932583c.43989324-1.24568606.70030355-2.54760456.77334737-3.86665154 0-2.09669995-1.78155088-3.86665153-2.89999914-3.86665153-.63120365.00910781-1.2438736.21487188-1.75255203.5887-.11454964.09193908-.18106842.23104846-.1807518.37795156v3.2779516l-2.78495121 6.03199958-.81489992.4079485c-.16353274.08192539-.26679993.24917411-.26679993.4321003v8.70000075c-.00022697.12827874.05056858.25139237.1411481.34219933.93266725.7098198 2.07019233 1.09846497 3.24219989 1.10779953zm0-.96665c-.8526001-.02406121-1.68471813-.26671029-2.41665125-.70470048v-8.17994976l.69985151-.34994793c.09792042-.04898357.17631054-.12977505.22234822-.22910023l2.90000057-6.28334808c.0292263-.06370926.04436016-.13294697.04445171-.20300007v-3.1213516c.29534626-.16643274.6276226-.2564686.96665096-.26195144C13.09639931.996875 14.5 2.31347496 14.5 3.8968752c-.1106081 1.43010736-.42539406 2.8370154-.93475151 4.17794776-.02093506.05487347-.03162766.11310005-.03167343.1718254-.00013542.26693536.21614075.4834385.4830761.48357488h6.7666068c.49639702.0040779.95618439.26177024 1.2187252.68308544.4235344.67964267.21591378 1.57392978-.46372985 1.99746608-.07481003.0460825-.13566399.1116953-.1759472.18981362-.1224346.23725605-.02936362.52875137.2078476.65118599.36617089.18256378.61380387.53944492.65666962.946352.0693283.65780068-.40772247 1.24727154-1.06556892 1.31659985-.11364365.0129137-.21904183.06574821-.29738617.14907741-.1828804.19443608-.17350197.50034142.02093506.68322278.21142768.19683742.34460067.46345615.37495994.75073814.06955528.65780067-.40735817 1.24745369-1.06516075 1.3169632-.11364365.01291275-.21903992.06574821-.29738617.14907646-.1828804.19443702-.17350197.50034141.02093506.68322181.2435093.22579384.38189316.542799.38184738.87484932-.0005436.66713524-.54121208 1.20780564-1.20834732 1.20834923h-8.94165182z"/>
  </g>
</svg>
