<svg xmlns="http://www.w3.org/2000/svg" xmlns:xlink="http://www.w3.org/1999/xlink" width="24" height="24" viewBox="0 0 24 24">
  <defs>
    <rect id="rect-1" width="24" height="24" x="0" y="0"/>
    <path id="path-2" fill-rule="evenodd" d="M12.46614995 4.22361327L11.998 4.692l-.46875485-.46914663c-2.29432205-2.29431113-6.01416325-2.29431113-8.3084952.0000099-2.29433257 2.29433256-2.29433257 6.0141831-.00000337 8.3085451l7.89540477 7.89530476c.4881599.4881599 1.2795424.4881599 1.76770454-.00000224l7.9013948-7.89669483c2.29105164-2.3037375 2.29176029-6.01330147-.001399-8.30640616-2.2981586-2.29814766-6.01953979-2.29814766-8.31770174.00000337z"/>
  </defs>
  <g>
    <g>
      <use fill="rgb(16,16,17)" xlink:href="#path-2"/>
      <use fill="rgb(16,16,17)" xlink:href="#path-2"/>
    </g>
    <path fill="rgb(255,105,112)" fill-rule="evenodd" d="M20.07674995 4.93072173c1.90289295 1.90284763 1.90230497 4.9807461.00052412 6.89306011l-7.90041976 7.8957171c-.09774305.09774302-.25596057.09774302-.35359842.00010517l-7.89540224-7.89530224c-1.90380603-1.90383325-1.90380603-4.9905227.00000224-6.89433098 1.9038072-1.90379813 4.99048601-1.90379813 6.89429406 8.4e-7l1.17725079 1.1771793 1.17424223-1.17681764c1.90725013-1.90724063 4.99546893-1.90724063 6.90310698.00038834z"/>
  </g>
</svg>
