<svg xmlns="http://www.w3.org/2000/svg" xmlns:xlink="http://www.w3.org/1999/xlink" width="24" height="24" viewBox="0 0 24 24">
  <defs>
    <rect id="rect-1" width="24" height="24" x="0" y="0"/>
    <path id="path-3" fill-rule="evenodd" d="M4.00000003 2h2.987268c.55228474 0 1 .44771525 1 1s-.44771526 1-1 1h-2.987268c-1.0543618 0-1.91816514.8158778-1.99451428 1.85073766L2.00000002 6v9c0 1.0543618.8158778 1.91816512 1.85073767 1.99451426L4.00000003 17h9.00000007c1.0543618 0 1.91816514-.8158778 1.99451428-1.85073766l.07995631-.6946388c.06734685-.58509118.46240309-1.08057675 1.0177999-1.27654018 0 0 .90772954-.32027875.90772954 1.82191664 0 2.1421954-1.68396848 3.89107888-3.80035968 3.9951047L13.0000001 19H4.00000003c-2.1421954 0-3.8910789-1.68396847-3.99510472-3.80035966L0 15V6c0-2.1421954 1.68396848-3.89107888 3.80035969-3.9951047L4.00000003 2z"/>
  </defs>
  <g transform="translate(2 3)">
    <path fill="rgb(1,119,253)" fill-rule="evenodd" d="M12.5001 3.54431V.75c0-.62397.7068-.96005 1.187-.6102l.0822.06894 5.9946 5.75c.2797.26835.3052.69937.0763.99733l-.0763.08513-5.9946 5.7518c-.4502.4321-1.1821.1547-1.2621-.4341l-.0071-.107V9.45l-.3208-.0062c-2.6575-.0079-4.92907 1.0831-6.86484 3.3012-.49561.5679-1.42527.1319-1.30555-.6123.82699-5.14037 3.59907-8.04442 8.18929-8.55827l.3019-.03012V.75v2.79431z"/>
    <g>
      <use fill="rgb(1,119,253)" xlink:href="#path-3"/>
      <use fill="rgb(1,119,253)" xlink:href="#path-3"/>
    </g>
  </g>
</svg>
