<svg xmlns="http://www.w3.org/2000/svg" width="24" height="24" viewBox="0 0 24 24">
  <defs>
    <rect id="rect-1" width="24" height="24" x="0" y="0"/>
  </defs>
  <g transform="translate(0 3)">
    <path fill="rgb(253,206,46)" fill-rule="evenodd" d="M21.5880002 9.91199994c.25199891.36400032.25199891.81200028 0 1.14800072-1.00799941 1.37199974-4.76000022 5.90799999-10.61200046 5.90799999h-.02799988c-5.5999999 0-9.23999989-4.11600113-10.55599984-5.88000011C.14 10.75200009.14 10.27600026.36400002 9.93999982c.98-1.45599938 4.6200001-6.10399985 10.55599997-6.15999985h.08399963c5.85200024 0 9.57600117 4.6760006 10.58400059 6.13199997zm-19.20800017.56000042c1.40000009 1.70800018 4.34000015 4.53600025 8.56799983 4.53600025 4.34000016 0 7.36400128-2.99600029 8.59599972-4.53600025-1.25999832-1.62400055-4.28399944-4.76000047-8.6239996-4.73200011C6.55199997 5.796 3.52800004 8.98800015 2.38000004 10.47200036z"/>
    <ellipse cx="11.032" cy="10.36" fill="rgb(16,16,17)" rx="3" ry="3"/>
    <rect width="1.68" height="2.66" x="5.209" y="1.097" fill="rgb(253,206,46)" rx="0" ry="0" transform="rotate(-23.296399 6.048637 2.426739)"/>
    <rect width="1.68" height="2.66" x=".722" y="4.117" fill="rgb(253,206,46)" rx="0" ry="0" transform="rotate(-45.538883 1.5615614 5.4466888)"/>
    <rect width="1.68" height="2.576" x="10.36" y=".028" fill="rgb(253,206,46)" rx="0" ry="0"/>
    <rect width="2.66" height="1.68" x="15.081" y="1.596" fill="rgb(253,206,46)" rx="0" ry="0" transform="rotate(-66.703633 16.411045 2.435713)"/>
    <rect width="2.66" height="1.68" x="19.521" y="4.622" fill="rgb(253,206,46)" rx="0" ry="0" transform="rotate(-44.46115 20.8510302 5.4620636)"/>
  </g>
</svg>
