<svg xmlns="http://www.w3.org/2000/svg" width="108.05" height="36.985" viewBox="0 0 108.05 36.985">
  <g>
    <text font-size="0" style="white-space:pre">
      <tspan x="36.05" y="30.406" fill="rgb(16,16,17)" font-family="Arial" font-size="24" font-weight="400" style="white-space:pre;text-transform:none">Grekkr</tspan>
    </text>
    <g transform="rotate(-120.000043 17.45003659 18.49255025)">
      <path fill="rgb(253,206,46)" fill-rule="evenodd" d="M10.73230159 9.9581458c2.52234-.56862 4.54167-.944055 6.382395-.834705.44989561.02275764.89790626.07388929 1.34136.15309.2187.03645.43011.08748.64881.134865.2187.047385.426465.10935.63423.178605.207765.069255.41553.13851.623295.215055l.30618.120285.15309.061965.149445.069255c.40824.17496.8019.38637 1.199205.60507.80893726.46806886 1.5803463.99818408 2.307285 1.585575l.280665.229635c.09477.0729.185895.156735.280665.23328l.280665.24057.27702.24786.142155.127575.13851.127575.27702.258795.60507.54675c.87875683.75697877 1.86055812 1.3853316 2.916 1.86624.134865.06561.27702.120285.41553.178605l.426465.164025.4374.1458.2187.069255.22599.061965.45198.11664.13122.025515c.047385-.419175.047385-.82377.047385-1.242945v-.462915l-.193185-.0729-.3645-.15309-.3645-.16767c-.120285-.05832-.244215-.112995-.3645-.178605-.9225438-.47967055-1.77694163-1.08032326-2.540565-1.78605-.18225-.171315-.3645-.34263-.535815-.51759l-.27702-.273375-.13851-.134865-.13851-.134865-.280665-.266085c-.091125-.091125-.185895-.17496-.280665-.26244l-.280665-.23328-.28431-.251505c-.74265751-.65402122-1.52410797-1.26262749-2.34009-1.8225-.404595-.26973-.805545-.528525-1.221075-.754515l-.15309-.08748-.156735-.083835-.31347-.16038c-.207765-.098415-.41553-.200475-.630585-.287955-.215055-.08748-.441045-.19683-.637875-.273375-.19683-.076545-.43011-.1458-.645165-.200475-.43232524-.12170514-.87349725-.20945206-1.31949-.26244-1.789695-.2187-3.645.2187-5.85387 1.15911-1.119015.47385-2.336445 1.038825-3.750705 1.62567-.710775.2916-1.458.586845-2.29635.86751-.411885.13851-.841995.273375-1.29762.40095-.229635.06561-.462915.127575-.70713.18954l-.273375.06561c.729-.08748 1.4337-.18954 2.1141-.30618 1.570995-.266085 2.96703-.5832 4.2282-.86022z"/>
      <path fill="rgb(0,0,0)" fill-rule="evenodd" d="M5.36686159 12.5424508c3.31695-.025515 5.97051-.091125 8.26686.24786.57591.08019 1.12266.185895 1.658475.31347.26973.061965.52488.13851.78732.21141.26244.0729.513945.156735.75816.251505.244215.09477.49572.185895.729.28431l.3645.156735.18225.08019.17496.08748c.477495.22599.929475.48843 1.3851.761805.9277097.58105995 1.8055301 1.23820605 2.6244 1.964655l.32076.28431c.10935.09477.21141.19683.317115.295245l.32076.29889.31347.31347.16038.15309.156735.164025.317115.324405c.222345.229635.455625.45927.688905.688905 1.0053131.9400946 2.16096647 1.70519135 3.41901 2.263545.16038.0729.32805.13851.49572.200475.16767.061965.33534.12393.506655.185895l.521235.156735.26244.0729.26973.061965c.36745291-.68851128.67947965-1.40519769.93312-2.14326l-.15309-.047385-.21141-.061965-.44469-.16767-.441045-.19683c-.142155-.06561-.28431-.13122-.419175-.20412-1.05888576-.55481706-2.02535378-1.27044605-2.86497-2.12139-.20412-.21141-.40095-.42282-.594135-.63423l-.302535-.331695-.149445-.16767-.15309-.185895-.302535-.32076c-.10206-.105705-.207765-.207765-.30618-.31347-.098415-.105705-.200475-.207765-.30618-.30618l-.309825-.295245c-.7846396-.75989206-1.62670006-1.45815637-2.518695-2.088585-.43153497-.3028722-.8780018-.58389083-1.337715-.841995l-.16767-.09477-.171315-.091125c-.11664-.05832-.229635-.120285-.346275-.17496-.236925-.112995-.46656-.222345-.70713-.32076-.24057-.098415-.48114-.18954-.729-.280665-.24786-.091125-.48843-.164025-.729-.229635-.50958945-.145167-1.02834439-.25598084-1.55277-.331695-2.139615-.331695-4.530735-.10206-7.570665.30618-1.37781.178605-2.88684.3645-4.589055.513945h.061965l.105705-.02187.200475-.047385.105705-.025515-.3645.04374-.45927.047385h.22599-.23328c-.13122.419175-.244215.841995-.338985 1.27575.73386.03402 1.447065.04617 2.139615.03645z"/>
      <path fill="rgb(0,0,0)" fill-rule="evenodd" d="M17.45003659 30.2243458c.77149667.0004011 1.54180395-.06054093 2.30364-.18225l-.1458-.20412c-.069255-.09477-.134865-.18954-.20412-.280665l-.207765-.27702c-.13851-.18225-.273375-.3645-.40824-.550395-.134865-.185895-.27702-.3645-.41553-.53217-.13851-.16767-.26973-.3645-.40824-.528525-.13851-.164025-.280665-.338985-.41553-.5103-1.05212881-1.30449572-2.19461182-2.53345664-3.41901-3.677805-.59778-.53946-1.19556-1.06434-1.8225-1.541835l-.23328-.18225-.251505-.185895c-.164025-.112995-.32076-.229635-.484785-.3645-.331695-.2187-.6561-.44469-.99873-.64881-.34263-.20412-.688905-.40824-1.03518-.608715-.346275-.200475-.70713-.38637-1.0935-.56133-.729-.3645-1.498095-.703485-2.307285-1.016955-.92583-.3645-1.90998-.710775-2.94516-1.03518.85865395 7.35223676 7.09031484 12.89427723 14.49252 12.88872z"/>
      <path fill="rgb(253,206,46)" fill-rule="evenodd" d="M24.71452159 23.6597008c-.24057-.266085-.470205-.53946-.703485-.812835-.120285-.142155-.236925-.287955-.3645-.43011l-.17496-.215055-.18225-.207765-.33534-.42282c-.11664-.134865-.24057-.266085-.3645-.40095-.12393-.134865-.23328-.266085-.3645-.39366l-.3645-.38637c-.91032849-.9805952-1.89364807-1.89080552-2.941515-2.722815-.5103-.39366-1.024245-.77274-1.563705-1.111725l-.200475-.127575-.20412-.120285-.40824-.244215c-.280665-.149445-.55404-.30618-.841995-.441045-.287955-.134865-.57591-.273375-.86751-.404595-.2916-.13122-.594135-.24786-.900315-.3645-.62070497-.22200794-1.2520703-.412999-1.891755-.572265-2.489535-.652455-5.376375-.88209-8.948475-1.19556-.14758395.84249298-.22197652 1.69617822-.222345 2.5515v.50301c1.93197356.26788982 3.84923908.63285153 5.74452 1.0935.729.18225 1.403325.390015 2.066715.61236.331695.10935.64881.23328.973215.3645.324405.13122.63423.25515.936765.397305.302535.142155.60507.28431.90396.426465l.441045.23328.23328.11664.215055.12393c.579555.32076 1.12995.68526 1.680345 1.06434 1.1163856.7942758 2.16931926 1.67415785 3.14928 2.63169l.3645.3645c.13122.12393.251505.258795.3645.38637.112995.127575.258795.258795.382725.39366l.3645.40824.18954.200475c.06561.069255.127575.142155.18954.21141.12393.142155.251505.280665.3645.42282.273375.29889.550395.594135.834705.88938.70312185.6896713 1.47921638 1.30076937 2.314575 1.8225 1.110211-.6310728 2.13336643-1.40425972 3.043575-2.299995-1.08526226-.62722693-2.06754218-1.41772254-2.912355-2.343735z"/>
    </g>
  </g>
</svg>
