<svg xmlns="http://www.w3.org/2000/svg" width="81.648" height="21.911" viewBox="0 0 81.648 21.911">
  <g>
    <path fill="#C5C5C5" fill-rule="evenodd" d="M11.195037 0H7.757883c-.006615 4.67397-.01323 7.701183-.019845 12.375153C6.261003 7.814016 4.782645 4.794363 3.300507 0H0v21.911148c1.114155-.158571 2.307123-.310527 3.422412-.456057.003213-4.579659.006426-7.394814.009639-11.974662C4.96692 13.988268 5.910597 16.64712 7.44093 20.930994c1.199583-.137025 2.517669-.305613 3.718575-.427518.011907-6.834429.023625-13.669047.035532-20.503476"/>
    <path fill="#C5C5C5" fill-rule="evenodd" d="M24.033807 0h-9.522009c-.012852 6.738228-.025515 13.476645-.038367 20.214873 3.185028-.289737 6.373836-.526554 9.564912-.710451.001701-.985257.003591-2.401434.005292-3.386502-2.075031.127575-4.060098.260442-6.127758.399546.003591-1.811565.007182-3.309768.010584-5.121522 1.511244-.026082 3.107349-.003213 4.651101-.029484.001701-.99036.003591-2.41164.005481-3.401811-1.529766.027027-3.145338.03024-4.650534.058779.003591-1.811754.007182-2.805516.010773-4.61727.94689-.01134 1.87488-.012852 2.801169-.012852.162729 0 .325269 0 .487998.000189h.485541c.772632 0 1.548477-.000945 2.337363-.007749.00189-.985257-.023247-2.400678-.021546-3.385746"/>
    <path fill="#C5C5C5" fill-rule="evenodd" d="M36.868419.01512c-3.494988 0-7.107723.000189-10.602711.000378-.001701.978831-.003213 2.388771-.004914 3.367413.152145-.000945.30429-.001323.456246-.001323.460593 0 .921186.004347 1.381968.008883.460215.004536.92043.009072 1.380834.009072.118125 0 .236061-.000378.354186-.000945-.007182 5.432427-.014364 10.394055-.021357 15.826482 1.121904-.041769 2.322243-.076923 3.444336-.105462.005103-5.402565.010206-10.334709.01512-15.737085 1.185219-.004536 2.40975-.007938 3.594969-.010395.000378-.962199.000945-2.394819.001323-3.357018"/>
    <path fill="#C5C5C5" fill-rule="evenodd" d="M48.660318 0h-9.561132c-.000945 6.342651-.00189 12.684924-.002835 19.027386.369495-.001512.743337-.002079 1.118691-.002079.764505 0 1.534869.002835 2.287845.008694-.000945-2.691549-.001701-5.147982-.002457-7.83972.187677.000567.377244.000945.568134.000945.444528 0 .896238-.001701 1.349838-.003591.4536-.00189.90909-.00378 1.360611-.00378.465318 0 .926289.00189 1.377054.008127-.000756-.964845-.001701-2.4003-.002646-3.365145-.425628-.004347-.860517-.005859-1.299753-.005859-.47061 0-.945945.001701-1.41939.003402-.472878.001701-.944055.003402-1.406916.003402-.177093 0-.353241-.000189-.527877-.000756-.000567-1.730484-.000945-2.707047-.001512-4.437531.373842.000567.746739.000756 1.118313.000756.377244 0 .753354-.000189 1.129275-.000378.379134-.000189.758079-.000378 1.137213-.000378.923643 0 1.848042.000945 2.780568.005103C48.662397 2.431485 48.661263.967113 48.660318 0"/>
    <path fill="#C5C5C5" fill-rule="evenodd" d="M50.89203.015309c.008316 6.403698-.022491 12.807396-.014175 19.211283 3.056886.113778 6.26913.237195 9.322236.448308-.00189-.985068-.00378-2.401623-.00567-3.386691-1.932336-.113778-3.944052-.250047-5.8779-.330372-.008694-5.484213.021546-10.458315.012852-15.942339C53.209548.015309 52.011666.015309 50.89203.015309"/>
    <path fill="#C5C5C5" fill-rule="evenodd" d="M63.020916.015876c.01323 6.622371.026082 13.244742.039123 19.867302 1.120014.086562 2.278773.179361 3.397842.278964.003969-6.710823.01323-13.430718.000378-20.146077-1.119636-.000189-2.317707-.000189-3.437343-.000189"/>
    <path fill="#C5C5C5" fill-rule="evenodd" d="M69.404958.016254c1.374597 3.348513 2.632014 6.706476 4.027968 10.262511-1.450764 3.415608-2.927421 6.808725-4.376673 10.085229 1.200528.118503 2.442447.291816 3.641841.425439.860517-2.110185 1.643355-3.73464 2.504628-5.901714.85995 2.308446 1.641654 4.092039 2.499336 6.474951 1.197504.155358 2.74995.378189 3.945942.548478-1.449819-3.875634-3.035529-7.911162-4.493286-11.573982 1.451709-3.4398 2.933091-6.723486 4.441122-10.319778-1.238139 0-2.515401-.000189-3.75354-.000378-.930636 2.222829-1.570779 3.651102-2.462859 5.766957-.831033-2.201472-1.388583-3.626154-2.220939-5.767335-1.238139-.000189-2.51559-.000189-3.75354-.000378"/>
  </g>
</svg>
