<svg xmlns="http://www.w3.org/2000/svg" xmlns:xlink="http://www.w3.org/1999/xlink" width="54" height="54" viewBox="0 0 54 54">
  <defs>
    <rect id="rect-1" width="54" height="54" x="0" y="0"/>
    <path id="path-2" fill-rule="evenodd" d="M11.66666667 2.3506476c.53168824 0 1.05123851.1589384 1.49192761.45640354L45.7255361 24.78973687c1.22069462.82396887 1.54230439 2.48149612.71833552 3.70219074-.1912027.28326327-.43507225.52713281-.71833552.71833552L13.15859428 51.19294886c-1.22069462.82396887-2.87822188.5023591-3.70219074-.71833552C9.1589384 50.03392424 9 49.51437397 9 48.98268573V5.01731427c0-1.47275933 1.19390733-2.66666667 2.66666667-2.66666667z"/>
  </defs>
  <g>
    <g>
      <use fill="rgb(253,206,46)" xlink:href="#path-2"/>
      <use fill="rgb(253,206,46)" xlink:href="#path-2"/>
    </g>
    <path fill="rgb(255,255,255)" fill-rule="evenodd" d="M11.66666667 4.3506476c-.33471803 0-.61182201.24667507-.6594383.56815156L11 5.01731427v43.96537146c0 .13292206.0397346.26280963.11410088.3729819.185393.2746563.53958157.3672479.83103695.23285133l.09451074-.05326745 32.56694182-21.98268573c.07081582-.04780067.1317832-.10876806.17958388-.17958388.185393-.27465629.13880632-.63777118-.09483654-.85781593l-.08474734-.06773175L12.03964857 4.46474849c-.11017227-.07436629-.24005984-.11410089-.3729819-.11410089z"/>
  </g>
</svg>
