<svg xmlns="http://www.w3.org/2000/svg" width="110.769" height="34.084" viewBox="0 0 110.769 34.084">
  <g>
    <path fill="rgb(197,197,197)" fill-rule="evenodd" d="M54.87942022 34.0835064v-.05536386c.05536385-.06920482.1522506-.1107277.23529638-.09688674.40138794-.01384097.78893492-.01384097 1.19032286 0 .08304578 0 .17993252.02768192.23529638.09688674v.05536386h-1.66091562z"/>
    <path fill="rgb(197,197,197)" fill-rule="evenodd" d="M37.12145996 5.34966581c-.37365723.19377137-.7335205.41522217-1.07958984.62283326-.00494385-.009964-.00994873-.01634217-.01361084-.02105713-.0065918-.0084076-.0090332-.01159668-.0001831-.02046204-.02770997-.02767944-.05541993-.05535888-.08306886-.0968933-.37371826-.55363465-.95501709-.94117738-1.60552978-1.07958985-.69207764-.13841248-1.38409424-.13841248-2.07617188 0-.8996582.16609192-1.7024536.56747436-2.46368408 1.03807068-.09692383.05537414-.17993164.1522522-.31835937.1522522-.06921387-.2076111-.11071778-.38754273-.17993164-.5813141-.08300782-.23530578-.23529053-.38755798-.48443604-.38755798H27.086792c-.16607666 0-.33221435.09689331-.38757324.26298523-.02764893.11073303-.0415039.2214508-.0415039.33218384v9.60562134c0 .47059631.12457275.60900879.60900878.60900879h1.8546753c.512146 0 .62286377-.11073303.62286377-.62284851V7.78567045c-.02770997-.11073303.0415039-.23529052.15222167-.26298523.74743653-.35986328 1.59173584-.5259552 2.42218018-.47058105.47058106.02767944.87200928.35986328.96887207.8304596.05535889.23529052.06921387.48442077.06921387.71972656v6.54676819c0 .51211547.11071777.63668823.62286377.63668823h1.46710205c.22149658 0 .42907715 0 .63671875-.01383972.19372558 0 .3460083-.13841248.3460083-.33218384.02764893-.13841248.02764893-.26298523.02764893-.40138245V7.75799101c-.01379395-.11073303.05535888-.22146606.16613769-.2491455.74737549-.34602357 1.56402588-.51211549 2.38061523-.45674134.44293213.02767944.83044434.33218384.94122315.76124573.06915283.2491455.0968628.49827575.08300781.76126098v6.40835572c0 .1522522 0 .3045044.02770996.45675659.02764893.16609192.16607666.3045044.33215332.31834411.11071778.01383973.22149659.01383973.33221436.01383973h1.68859863c.62280274 0 .70587158-.0830536.70587158-.70588685v-7.1696167c0-.16609191 0-.31834411-.01385498-.4705963-.05535888-.71972657-.2491455-1.38409425-.77508545-1.92390443-.5536499-.58131408-1.27337646-.80276489-2.0623169-.84428405-1.09344481-.05537415-2.17303466.19377136-3.14190673.69204711zm17.7579956 28.67848206c.5536499-.01383972 1.10729981-.01383972 1.66088868 0 2.20074463-.08303833 4.38763428-.31834412 6.5606079-.70588684 3.76477052-.70588684 7.41876222-1.93772888 10.83752442-3.66786194 1.81317139-.91349792 3.52941895-2.00692749 5.12115479-3.25262451.19378662-.13841248.3460083-.31834412.45672607-.5259552.02770996-.05535889.05535889-.12457275.06921387-.17993164.11071777-.4567566-.16607666-.92733765-.62286377-1.03807068-.27679443-.0691986-.58129883-.02767944-.83044434.11073303-1.67474365.77508545-3.39105224 1.43945313-5.14886474 2.02078247-3.33563233 1.10726929-6.78204346 1.89620972-10.2699585 2.33911133-1.49481201.19377136-2.98968506.33218384-4.49829101.37371826-2.79589844.09687805-5.60559082-.0276947-8.38763428-.37371826-1.93774414-.24913025-3.8616333-.5951538-5.77172852-1.03807068-5.68859863-1.32873535-11.11425781-3.57096863-16.08319092-6.6436615-.11071777-.0691986-.23529052-.12457275-.35986328-.17993164-.19372558-.08303833-.41522216-.02767944-.55358886.12457276-.13842774.1522522-.17999268.35986328-.09692383.55363464.05535889.13841248.15228271.27682495.26300049.373703.47058105.44291687.92730713.88581848 1.41174316 1.31489563 5.20422363 4.60903931 11.16967774 7.7786255 17.96557617 9.3564911 1.9654541.45675658 3.97235108.76124572 5.99316407.91349792.76123046.05537414 1.52252197.08305359 2.28375244.12457275z"/>
    <path fill="rgb(197,197,197)" fill-rule="evenodd" d="M64.73418622 12.86530937c.08304578-.27681927.16609156-.53979757.24913734-.81661684.63668432-2.14534934 1.27336864-4.27685772 1.91005296-6.42220706l.08304578-.24913734c.06920482-.24913734.3045012-.40138794.55363854-.40138794h2.10382645c.52595661 0 .63668432.1522506.4567518.65052528l-.83045781 2.2007132c-.92734456 2.40832764-1.8546891 4.83049625-2.78203366 7.2388239-.02768193.08304578-.06920482.16609156-.09688675.24913734-.09688674.29066023-.38754697.48443372-.69204817.4567518-.6090024-.01384097-1.21800479-.01384097-1.82700718 0-.42906987.01384096-.67820721-.17993253-.83045781-.5674795-.34602409-.9135036-.70588914-1.84084815-1.05191322-2.75435174-.83045781-2.17303127-1.67475659-4.34606254-2.5052144-6.53293477-.08304578-.16609156-.13840963-.35986505-.17993252-.53979757-.0415229-.27681927.05536385-.4152289.33218312-.4152289.78893492-.01384097 1.57786984 0 2.3529638 0 .33218312 0 .48443372.2214554.5674795.51211564.1522506.52595662.3045012 1.0657542.47059276 1.5917108.5674795 1.92389393 1.12111804 3.86162882 1.68859754 5.78552274-.01384096.01384096 0 .01384096.02768193.01384096z"/>
    <path fill="rgb(197,197,197)" fill-rule="evenodd" d="M15.82025146 6.3323776c-.05535888.08303834-.13842773.13839722-.23529052.16609193-.08306885-.37371827-.1661377-.71974183-.2630005-1.06576539-.09686278-.34602355-.26300048-.4705963-.62286376-.4705963h-1.32873535c-.63665772 0-.70587158.06921386-.70587158.7059021v9.41184997c0 .11073303 0 .2214508.01385498.33218383.01385498.17993165.15222168.33218384.33215332.34602356.09692382.01383973.2076416.01383973.3045044.01383973h1.7993164c.09692383 0 .2076416 0 .3045044-.01383973.17993163 0 .31835937-.13841247.33221435-.31834411.01385498-.12457276.01385498-.23529053.01385498-.35986328V8.4361984c0-.1522522 0-.29066468.19372558-.35986328.87200928-.29066468 1.77166748-.47059632 2.69903565-.38754273l.0192871.00138855c.18646241.01333618.36083985.02583313.54815675.01245117.2491455-.0276947.3460083-.12457275.40136718-.37371826.02770996-.19377136.04156495-.373703.02770996-.56747436 0-.11721802.0008545-.23530579.00170899-.35380555.00262451-.35726928.00524902-.71844482-.01556397-1.07180786-.02764892-.34602356-.15222168-.45675659-.51208496-.47059631-.8996582-.0691986-1.7993164.20761108-2.51904297.76124573-.27685546.22146606-.53979492.45675659-.78894043.7059021zM83.0319214 20.85154266c-.88580323-.23530579-1.78546143-.29066468-2.69897461-.31834412-.96887207.02767944-1.92388916.12457275-2.86505127.31834412-1.21801758.29066467-2.3668213.73356628-3.39105225 1.46714782-.16607666.09687805-.3045044.23529053-.41522217.38754273-.09692382.16609192-.13842773.33218384-.04156494.49827575.09692383.16609192.2630005.17993165.44293213.16609192l1.67474365-.20762634c1.25952149-.16609192 2.53289795-.2214508 3.80627442-.16609192.4567871.0276947.8996582.11073303 1.32873535.24914551.4567871.13841248.7612915.53979492.77508545 1.01039123.02770996.27682496.01385498.55363465-.01379395.8304596-.09692383.76124573-.2491455 1.508667-.47064209 2.24223328-.37365722 1.34257507-.84429931 2.629776-1.32873535 3.9308319-.05535889.13841248-.08300781.27682496-.0968628.41522217.01385499.26298523.17993165.4013977.44293214.33218384.16607666-.05535889.31829834-.15223694.4428711-.2768097.62286376-.58132934 1.16265868-1.24568175 1.60559081-1.9792633 1.21795654-2.03462219 1.95153809-4.31837463 2.13146973-6.68518066.02770996-.40138245.01385498-.80278015-.0415039-1.19032288-.04150391-.33218383-.24914552-.63668823-.5675049-.76126098-.23529052-.11071778-.47058105-.19377137-.71972655-.26296997z"/>
    <path fill="rgb(197,197,197)" fill-rule="evenodd" d="M74.53358837 10.37393595v4.98274685c-.02768193.27681927-.1522506.40138794-.42906987.4152289-.74741203.01384097-1.4809831.01384097-2.22839512 0-.27681927 0-.40138794-.13840963-.42906987-.40138794-.01384096-.08304578-.01384096-.17993252-.01384096-.2629783V5.52959873c.01384096-.42906987.12456867-.55363854.55363853-.55363854h1.99309875c.42906986 0 .55363854.12456867.55363854.55363854v4.84433722z"/>
    <path fill="rgb(197,197,197)" fill-rule="evenodd" d="M23.23895264.1039459c-.20758057-.06920623-.42901612-.11073303-.6505127-.09688568-1.10723877 0-1.7578125.53979493-1.84082031 1.52250672-.05535889.99655151.52593994 1.5778656 1.31488037 1.7301178.3045044.05535888.62286377.05535888.92736816 0 .71972657-.11073304 1.25952149-.69204712 1.31488038-1.41177369.06921386-.84429931-.31835938-1.49482727-1.0657959-1.74396514zm-2.25604248 5.32875824v4.9135437c0 1.5778656 0 3.1557312-.01385498 4.6920929 0 .11071778 0 .2214508.01385498.33216858.01385498.19378662.17993164.34603882.37371826.35987854.06915283.01383972.12457275.01383972.19372558.01383972h1.92388916c.08306885 0 .15228272 0 .23535157-.01383972.17993164-.01383972.31829834-.13841247.33215332-.31834412.01385498-.1522522.02770996-.30450439.02770996-.45675659V5.73720854c0-.12457275 0-.23530579-.01385498-.35986328-.02770996-.31834412-.12457276-.41523743-.44293213-.41523743q-1.07958985-.02076721-2.15917969 0c-.33221435.01383972-.45672607.13841248-.47058105.47059631z"/>
    <path fill="rgb(197,197,197)" fill-rule="evenodd" d="M72.99724142.0070543c.27681927-.02768193.55363854.02768192.81661684.13840963.53979758.20761445.9135036.70588914.94118552 1.2872096.11072771 1.25952768-.73357106 1.896212-1.8546891 1.86853008-.1522506 0-.3045012-.02768193-.4567518-.05536386-.85813974-.20761445-1.30105057-.8719807-1.21800479-1.82700718.06920482-.76125299.66436625-1.3287325 1.4809831-1.39793731.09688674-.01384096.19377348-.02768193.29066023-.01384096z"/>
    <path fill="rgb(197,197,197)" fill-rule="evenodd" d="M10.07623291 7.13515776c.29064941.65052795.48443604 1.3564148.53979492 2.07614136.0968628 1.16264343.06921387 2.31144714-.3045044 3.44639587-.26300048.88583374-.76123046 1.68859863-1.43945312 2.31144714-.92736816.8304596-2.03460693 1.134964-3.2526245 1.01039124-.87200929-.08305359-1.7163086-.41523743-2.4083252-.95503235-.07476807.06407166-.06713868.14460754-.05975342.22254944.00219726.0231018.00439453.04597473.00439453.06811523v3.94467163c0 .85813904 0 .85813904-.87200928.85813904-.16607666 0-.33221435-.00154114-.49829101-.00308227-.33215332-.00306702-.66430664-.0061493-.996521.00308227-.31835938.01383972-.5951538-.04151916-.77508545-.33218384C0 14.95530242 0 10.0971176 0 5.25278776c.22143555-.2491455.512146-.29066467.83044434-.27682495.27734375.00924683.56085205.00613404.84228515.00305176.13989258-.00152588.27935791-.00305176.41723633-.00305176.37371826 0 .512146.12457276.62286377.47059632.0415039.13841247.06921387.27682495.11071777.41522216 0 .01385498.02770996.0276947.05535889.04153443.11071777-.05537415.2076416-.12457276.29064941-.20762635 1.24572754-.92733764 2.6159668-1.25952148 4.13848877-.92733764 1.32873536.3045044 2.2006836 1.17648315 2.76818848 2.36680603zm-3.40490723 6.04849243c.31835938-.29066467.53979493-.6782074.63665772-1.10726929.2491455-.84429931.2491455-1.73013305.1661377-2.61595154-.02770997-.48443603-.15228272-.96887207-.35986329-1.41177368-.23535156-.53979492-.73358154-.91351318-1.3149414-.99655151-.83044434-.16609192-1.61938477 0-2.38061524.35986328-.17993164.06921387-.29064941.23529053-.27685547.42907715.00921631.55363464.00616455 1.10726929.00305176 1.66090393-.00152588.27682495-.00305176.55363464-.00305176.8304596v2.5052185c-.01379394.16609192.08306885.31834412.23535157.38754272.62280273.33218384 1.31488037.48443604 2.02075195.44291688.47058105 0 .91351318-.17993165 1.27337646-.48443604z"/>
    <path fill="rgb(197,197,197)" fill-rule="evenodd" d="M86.4921875.10393828h-1.92388916c-.52593994 0-.62286377.09688568-.62286377.62284088v4.48447418c0 .02644348.0031128.0528717.00616455.07929993.00823975.07061767.0164795.1409912-.03381348.21136474-.12457275-.01383972-.19378662-.0968933-.29064941-.1522522-1.43945312-.84429931-2.94812012-.9965515-4.47064209-.29066467-1.06573486.49827576-1.73010254 1.39793396-2.15917969 2.46369934-.41522216 1.02423096-.512146 2.1038208-.48443603 3.19725037 0 1.02423096.23529053 2.0346222.6920166 2.94813538.52600098 1.01039123 1.28723144 1.78547668 2.39453125 2.11766052 1.50860596.47059631 2.92041016.23530578 4.2076416-.71972657.0968628-.05535888.15222168-.1522522.27679443-.17993164.06921387.1522522.12457276.31834412.15228272.48443604.05535889.2214508.24908447.373703.48443603.373703h.33215332c.16711426 0 .33270264.0015564.49725342.00309754.32635498.00306701.64813233.00610351.96990967-.00309754.3875122 0 .49822998-.12457275.51208496-.5259552V.62989348c-.01385498-.42906952-.12457275-.5259552-.53979492-.5259552zm24.2078247 9.25961303c-.02764892.06919861 0 .1522522.0553589.20761109V9.5158035c0 .01383972.01385497.01383972.01385497.02767944v1.59170533c-.01385498.01383972-.02764892.04151916-.02764892.05535888v-.02767944c-.08105469.05404663-.06982422.1212616-.05633545.20169067l.00097656.00593567v.19377136h.01379395c-.19372559 1.91004944-1.39788819 4.11076355-4.3045044 4.45678711-.87200927.12457276-1.7578125.06919861-2.60211181-.13841247-1.59173584-.40138245-2.69897461-1.37025452-3.25262452-2.90660095-.63671875-1.68859864-.6505127-3.54328919-.01385498-5.23188782.6505127-1.77163696 1.99310303-2.76818848 3.8616333-3.04501343.88580323-.13841247 1.77166749-.11071777 2.64361573.09689331 1.86853027.47059631 3.01733398 1.67475891 3.52947998 3.50175476.06915283.24914551.12457275.51211548.15222168.77510071 0 .01383972.01385498.01383972.01385498.02767944h-.02770996v.13841248h.01385498c-.01385498 0-.01385498.01383972-.01385498.01383972v.11073303zM83.95928956 12.8099472v-2.51905823c0-.21151733-.0008545-.42218018-.00170898-.63261414-.00262452-.62953186-.00524903-1.25714111.01550293-1.90028381.01385498-.17993164-.08300782-.34602356-.24914551-.40138245-.66436768-.3045044-1.39788819-.44291687-2.13146973-.373703-.60900879.04151917-1.16265869.38754273-1.4533081.92733765-.12457276.22146606-.2076416.44291687-.27679444.6782074-.2076416.84429931-.27685547 1.7301178-.1661377 2.60211181.04156495.48442078.1661377.9550171.38757325 1.39793396.29064941.56747437.84429932.9550171 1.48095703 1.02423096.74743652.11071777 1.508667-.04153443 2.17303467-.41523743.15228271-.0691986.2491455-.2214508.22149658-.38754272zm23.08673096.13839721c.17993164-.24913025.3045044-.51211547.3875122-.80276489.1661377-.56748962.23535157-1.16264343.19378663-1.77165222.01379394-.24769592.00012207-.49539185-.01379395-.747406-.02770996-.53979493-.1661377-1.0796051-.40142822-1.56402589-.24914551-.51211547-.70587158-.87199401-1.25952149-.98271179-.26300048-.05537414-.52593994-.05537414-.78894043-.02767944-.58129882.04151916-1.10723877.35986328-1.41174316.85813904-.1661377.27680969-.3045044.5951538-.37371826.91349792-.19378662.80278015-.17993164 1.61940003-.11071778 2.43600464.04150391.47059631.16607666.94119263.37365723 1.37025452.23535156.53981018.71972656.9273529 1.30108643 1.03808594.26293945.05535888.52593994.05535888.78894043.02767944.52593994-.04153443 1.01037597-.31834412 1.31488037-.74742127z"/>
    <path fill="rgb(197,197,197)" fill-rule="evenodd" d="M51.30841064 11.28744047c-1.0380249.16609192-2.1038208.1522522-3.1418457-.04151916-.12457275-.0276947-.26300049-.04153443-.38757324-.05537415-.06921387 1.24569702.69207764 2.25608826 1.86853027 2.49137879.8581543.1522522 1.74395752.1522522 2.60211182-.02767945.40136719-.08305359.78894043-.16609192 1.19030762-.26298523.40136718-.09687805.56750488.02767945.56750488.44291687 0 .11585999-.00152588.23171997-.0031128.34706116-.00305175.22912598-.00610351.45620728.0031128.6771698.01379394.35986328-.15228272.55363464-.47058106.6782074-.52600097.20761108-1.07965087.34602356-1.63323974.44290161-1.05194092.16609192-2.11767578.20762634-3.1696167-.02767944-1.84082031-.38754273-3.0588379-1.4809723-3.54327393-3.32182312-.37371826-1.43946839-.42907715-2.89276123.02770996-4.3183899.6505127-2.08998108 2.07611084-3.29414367 4.2630005-3.54327392.92730712-.12457276 1.86853027-.0276947 2.75433349.26296997 1.81317139.65052795 2.5606079 2.4083252 2.07617187 4.15229797-.19378662.69204712-.65057373 1.19030762-1.27337646 1.55018616-.53979492.29064941-1.12115479.47058105-1.73016358.55363464zM48.0834961 8.17322844c-.12457275.30448913-.22149658.62283325-.26300048.95501709-.01409913.11308288-.02105713.16841125.00323486.19918823.0232544.02947998.07513428.03640747.17669678.04995727.53979492.08303833 1.09344482.1245575 1.63323974.1245575.3045044.02767944.6090088 0 .8996582-.0691986.48443604-.09689332.88580323-.3045044 1.05194092-.80278016.06921387-.23529053.08300782-.48443604.04150391-.71972656-.0415039-.38754273-.27679443-.71972657-.63665772-.87197876-.23535156-.09689331-.48443603-.1522522-.73358154-.16609192-.88586426-.05535889-1.7578125.29066467-2.17303467 1.3010559z"/>
    <path fill="rgb(197,197,197)" fill-rule="evenodd" d="M97.17736816 10.78916472c-.71972656.38754272-1.52252197.53979492-2.32525634.5951538-.92736817.06921387-1.8546753 0-2.76818848-.16609191-.05535889-.02767945-.12457275-.02767945-.19378662-.02767945.02764892.29066468.08306885.56748963.15222168.84429932.2491455.94119263.88586426 1.48098755 1.82702637 1.66091919.9411621.16609192 1.91003418.12457275 2.83740234-.09689331.3045044-.06919861.5951538-.13839722.8996582-.2214508.40136719-.09687806.56750489.04151916.58129883.44291686v.99655152c0 .42906189-.0968628.56747436-.49822998.71972656-.95501709.35986328-1.9654541.55363464-2.97583008.56747436-.6920166.02767945-1.39794922-.04151916-2.07611084-.20761108-1.57788086-.42907715-2.68518066-1.38409424-3.1696167-2.96195984-.47058105-1.53634643-.53979492-3.10038757-.05535888-4.636734.71972656-2.32527161 2.49139404-3.50175477 4.81665039-3.55712891.69207763-.02767945 1.39794922.05537414 2.0623169.26298523 1.1903076.40138244 1.97924804 1.17648315 2.26989745 2.42216491.11071778.49827576.11071778 1.02423096.01385498 1.52250672-.15222168.80278015-.66436767 1.48098754-1.39794922 1.84085083zM92.5130005 7.66111296c-.33215332.44290161-.45672608.96885681-.5536499 1.508667-.02764893.12455749.02770996.17993163.15228271.19377135.5536499.08303833 1.1072998.12457276 1.67474365.13841248.29064942.01383972.58129883-.01383972.8581543-.06921387.51208496-.09687805.96887207-.3045044 1.1072998-.85813904.17993165-.747406-.05541992-1.52250671-1.02423095-1.6747589-.06921387 0-.12457276-.02767945-.19378662-.02767945-.80279541-.08303833-1.508667.11073303-2.020813.78894043z"/>
  </g>
</svg>
